#!OML:ASF I:\Actors\actors\Patient Classification 1\Patient 1\Session 1\Subject1.ASF
:FULLY-SPECIFIED
:DEGREES
343
root 0.892683 17.4112 9.06094 3.50462 3.97574 -8.09574
lowerback -5.23758 2.90863 5.72489
upperback -11.0101 4.05509 1.63379
thorax -8.45274 1.6464 -1.53164
lowerneck -6.82388 -6.02086 -3.48689
upperneck 38.8577 -10.0156 4.23789
head 15.1227 -4.24852 0.950969
rclavicle 1.39149e-014 2.38542e-014
rhumerus 11.007 34.7543 -90.6009
rradius 106.447
rwrist 30.3038
rhand -25.8952 -30.9083
rfingers 7.12502
rthumb 0.647009 -60.8871
lclavicle 1.39149e-014 2.38542e-014
lhumerus 12.9023 -33.4098 83.9917
lradius 123.599
lwrist -4.07741
lhand -21.9761 -27.3739
lfingers 7.12502
lthumb 4.4318 2.55971
rfemur 2.09508 20.9101 26.3066
rtibia 4.97973
rfoot -16.1166 -26.6676
rtoes 2.23347
lfemur 8.80771 -38.7266 -14.4542
ltibia -4.0411
lfoot -13.3494 41.9981
ltoes -0.837749
344
root 0.891525 17.4121 9.05345 3.52167 4.05346 -8.06688
lowerback -5.20153 2.8867 5.7389
upperback -11.0063 4.03244 1.68644
thorax -8.4743 1.63617 -1.48542
lowerneck -6.78978 -6.00668 -3.44394
upperneck 38.7837 -9.95764 4.13871
head 15.0631 -4.2324 0.912466
rclavicle -1.11319e-014 4.21423e-014
rhumerus 11.2976 34.9475 -90.5386
rradius 106.309
rwrist 30.3187
rhand -26.0237 -30.902
rfingers 7.12502
rthumb 0.522816 -60.8812
lclavicle -1.11319e-014 4.21423e-014
lhumerus 12.9152 -33.2913 83.9897
lradius 123.624
lwrist -4.0694
lhand -21.8803 -27.3668
lfingers 7.12502
lthumb 4.52434 2.56491
rfemur 2.03865 20.8528 26.2496
rtibia 4.99281
rfoot -16.135 -26.6763
rtoes 2.19319
lfemur 8.72903 -38.8405 -14.4655
ltibia -4.01925
lfoot -13.1715 42.0799
ltoes -0.96318
345
root 0.890385 17.4129 9.04521 3.5215 4.13857 -8.04969
lowerback -5.18424 2.86559 5.77111
upperback -10.9627 4.00855 1.76345
thorax -8.44116 1.62715 -1.42153
lowerneck -6.81938 -5.96598 -3.45001
upperneck 38.7248 -9.85976 4.07118
head 15.0295 -4.19953 0.899426
rclavicle 1.6201e-014 3.26007e-014
rhumerus 11.5869 35.161 -90.5335
rradius 106.145
rwrist 30.3185
rhand -26.1092 -30.8446
rfingers 7.12502
rthumb 0.440243 -60.8239
lclavicle 1.6201e-014 3.26007e-014
lhumerus 12.9335 -33.2071 84.0232
lradius 123.599
lwrist -4.32111
lhand -22.166 -27.1386
lfingers 7.12502
lthumb 4.24846 2.79873
rfemur 1.99901 20.7919 26.2147
rtibia 5.00717
rfoot -16.1512 -26.6879
rtoes 2.24975
lfemur 8.62522 -38.8798 -14.4307
ltibia -3.97755
lfoot -13.0649 42.0387
ltoes -1.04516
346
root 0.889846 17.4136 9.03624 3.52504 4.19205 -8.06846
lowerback -5.1393 2.91172 5.88394
upperback -10.9409 4.07567 1.79586
thorax -8.43557 1.65343 -1.45201
lowerneck -6.95163 -6.0368 -3.73747
upperneck 38.7981 -9.94881 4.17483
head 15.13 -4.25959 0.973354
rclavicle -2.23633e-014 1.98785e-014
rhumerus 11.7486 35.2361 -90.6533
rradius 105.982
rwrist 30.4064
rhand -26.1594 -30.7478
rfingers 7.12502
rthumb 0.391811 -60.7272
lclavicle -2.23633e-014 1.98785e-014
lhumerus 12.9306 -33.2909 84.0778
lradius 123.595
lwrist -4.54662
lhand -22.4727 -26.9529
lfingers 7.12502
lthumb 3.95228 2.99023
rfemur 1.93938 20.7853 26.2211
rtibia 5.04653
rfoot -16.1697 -26.7266
rtoes 2.26029
lfemur 8.49296 -38.8309 -14.3184
ltibia -3.93198
lfoot -13.0114 41.9211
ltoes -1.10084
347
root 0.891342 17.4143 9.02825 3.53488 4.20268 -8.01601
lowerback -5.06508 2.98811 5.97111
upperback -10.9374 4.18439 1.78987
thorax -8.46279 1.6992 -1.51146
lowerneck -6.96535 -6.11781 -3.64383
upperneck 38.7267 -9.99572 3.94145
head 15.0753 -4.29705 0.8521
rclavicle 2.18663e-014 -3.85642e-014
rhumerus 11.9362 35.3255 -90.7626
rradius 105.762
rwrist 30.4555
rhand -26.2122 -30.8085
rfingers 7.12502
rthumb 0.340748 -60.788
lclavicle 2.18663e-014 -3.85642e-014
lhumerus 12.9173 -33.392 84.1526
lradius 123.592
lwrist -4.63411
lhand -22.543 -27.1316
lfingers 7.12502
lthumb 3.8844 2.81276
rfemur 1.8872 20.7486 26.124
rtibia 5.05982
rfoot -16.1496 -26.7088
rtoes 2.21053
lfemur 8.44654 -38.8704 -14.374
ltibia -3.92069
lfoot -12.893 41.9597
ltoes -1.28809
348
root 0.894387 17.4146 9.02117 3.53706 4.20013 -7.91117
lowerback -4.95953 3.04629 6.03558
upperback -10.9419 4.27233 1.7901
thorax -8.52 1.7356 -1.55374
lowerneck -7.03471 -6.19427 -3.72756
upperneck 38.7666 -10.0349 3.78213
head 15.1069 -4.34338 0.790987
rclavicle 3.17062e-014 -2.28602e-014
rhumerus 12.1437 35.5306 -90.9223
rradius 105.446
rwrist 30.4625
rhand -26.2289 -30.7995
rfingers 7.12502
rthumb 0.324685 -60.779
lclavicle 3.17062e-014 -2.28602e-014
lhumerus 12.8854 -33.4107 84.2126
lradius 123.57
lwrist -4.72774
lhand -22.6053 -27.3409
lfingers 7.12502
lthumb 3.82426 2.60452
rfemur 1.855 20.6702 25.9532
rtibia 5.05065
rfoot -16.1211 -26.6382
rtoes 2.20013
lfemur 8.47746 -38.9841 -14.5532
ltibia -3.94872
lfoot -12.7739 42.0897
ltoes -1.47589
349
root 0.8983 17.4153 9.01363 3.56729 4.20301 -7.84925
lowerback -4.83869 3.11807 6.18441
upperback -10.9945 4.38481 1.8051
thorax -8.63569 1.7755 -1.62933
lowerneck -7.09187 -6.28933 -3.93028
upperneck 38.8834 -10.0771 3.60922
head 15.1819 -4.40859 0.743917
rclavicle -2.27608e-014 1.23246e-014
rhumerus 12.205 35.7628 -91.1095
rradius 105.198
rwrist 30.4687
rhand -26.1702 -30.7112
rfingers 7.12502
rthumb 0.381404 -60.6906
lclavicle -2.27608e-014 1.23246e-014
lhumerus 12.7878 -33.4363 84.3089
lradius 123.594
lwrist -4.71144
lhand -22.5415 -27.4443
lfingers 7.12502
lthumb 3.88585 2.50006
rfemur 1.77505 20.6601 25.8284
rtibia 5.0743
rfoot -16.1314 -26.6225
rtoes 2.29123
lfemur 8.45647 -39.0764 -14.6264
ltibia -4.00836
lfoot -12.6629 42.1943
ltoes -1.56734
350
root 0.903323 17.4168 9.00584 3.61695 4.17885 -7.8366
lowerback -4.71017 3.19604 6.40704
upperback -11.0855 4.51246 1.85569
thorax -8.7975 1.8163 -1.70973
lowerneck -6.98576 -6.30945 -3.724
upperneck 38.8543 -9.93705 3.05841
head 15.0766 -4.39337 0.505546
rclavicle -1.89839e-014 -4.27387e-014
rhumerus 12.1802 36.0562 -91.2995
rradius 105.035
rwrist 30.4809
rhand -25.9733 -30.7416
rfingers 7.12502
rthumb 0.571522 -60.7206
lclavicle -1.89839e-014 -4.27387e-014
lhumerus 12.5474 -33.4396 84.4761
lradius 123.657
lwrist -4.60566
lhand -22.4535 -27.686
lfingers 7.12502
lthumb 3.97088 2.2567
rfemur 1.65278 20.7097 25.7596
rtibia 5.13479
rfoot -16.1531 -26.624
rtoes 2.35538
lfemur 8.47395 -39.2501 -14.6629
ltibia -4.12016
lfoot -12.6191 42.4108
ltoes -1.43508
351
root 0.90961 17.4181 8.99961 3.66433 4.14492 -7.79268
lowerback -4.72082 3.24561 6.61715
upperback -11.0945 4.58462 1.92165
thorax -8.79108 1.83797 -1.75565
lowerneck -7.02297 -6.34814 -3.65212
upperneck 38.9006 -9.85707 2.64841
head 15.0672 -4.40026 0.333249
rclavicle 2.27111e-014 5.02925e-014
rhumerus 12.2812 36.4005 -91.5601
rradius 104.802
rwrist 30.5592
rhand -25.8355 -30.6116
rfingers 7.12502
rthumb 0.704652 -60.5902
lclavicle 2.27111e-014 5.02925e-014
lhumerus 12.3632 -33.3519 84.5857
lradius 123.675
lwrist -4.60458
lhand -22.668 -27.8482
lfingers 7.12502
lthumb 3.7637 2.09833
rfemur 1.56726 20.7564 25.6592
rtibia 5.14896
rfoot -16.1878 -26.6272
rtoes 2.38467
lfemur 8.56523 -39.5424 -14.8135
ltibia -4.21892
lfoot -12.8143 42.7303
ltoes -1.09849
352
root 0.915362 17.4188 8.99531 3.73071 4.12203 -7.66516
lowerback -4.99852 3.31664 6.78296
upperback -10.9442 4.64312 1.92775
thorax -8.44649 1.86796 -1.81946
lowerneck -7.10816 -6.38549 -3.575
upperneck 38.7436 -9.83398 2.43332
head 14.9853 -4.40835 0.232944
rclavicle -2.21645e-014 1.56046e-014
rhumerus 12.6342 36.6235 -91.6833
rradius 104.574
rwrist 30.7077
rhand -25.9605 -30.2567
rfingers 7.12502
rthumb 0.58387 -60.2357
lclavicle -2.21645e-014 1.56046e-014
lhumerus 12.5257 -33.3076 84.5302
lradius 123.659
lwrist -4.66913
lhand -22.7966 -27.6992
lfingers 7.12502
lthumb 3.63952 2.24947
rfemur 1.51163 20.8322 25.473
rtibia 5.11013
rfoot -16.1893 -26.7009
rtoes 2.36996
lfemur 8.60157 -39.8038 -15.0442
ltibia -4.25319
lfoot -13.0339 43.0191
ltoes -0.983937
353
root 0.91936 17.4192 8.9915 3.82273 4.09913 -7.50461
lowerback -5.046 3.39501 6.83043
upperback -10.9387 4.74512 1.95439
thorax -8.4049 1.91778 -1.81502
lowerneck -7.16202 -6.4115 -3.65109
upperneck 38.6427 -9.82223 2.37012
head 14.9475 -4.42199 0.220742
rclavicle -2.66371e-014 -3.32964e-014
rhumerus 12.6562 36.7874 -91.8597
rradius 104.461
rwrist 30.8611
rhand -26.1735 -29.9094
rfingers 7.12502
rthumb 0.378145 -59.8888
lclavicle -2.66371e-014 -3.32964e-014
lhumerus 12.4346 -33.3446 84.7047
lradius 123.69
lwrist -4.72616
lhand -22.6655 -27.4844
lfingers 7.12502
lthumb 3.76611 2.46208
rfemur 1.43192 20.9475 25.2492
rtibia 5.07861
rfoot -16.1615 -26.7985
rtoes 2.38091
lfemur 8.56783 -39.9912 -15.2525
ltibia -4.27866
lfoot -13.121 43.2679
ltoes -0.997029
354
root 0.923376 17.4202 8.98745 3.87642 4.12365 -7.40377
lowerback -5.06215 3.432 6.94005
upperback -10.9303 4.79865 2.03945
thorax -8.38379 1.94072 -1.78431
lowerneck -7.24198 -6.41582 -3.84888
upperneck 38.5761 -9.75244 2.30669
head 14.9386 -4.42702 0.236155
rclavicle 6.90777e-015 -2.07233e-014
rhumerus 12.6424 37.0455 -92.0123
rradius 104.39
rwrist 30.9281
rhand -26.2114 -29.9957
rfingers 7.12502
rthumb 0.341608 -59.9751
lclavicle 6.90777e-015 -2.07233e-014
lhumerus 12.2732 -33.2773 84.9462
lradius 123.732
lwrist -4.74406
lhand -22.6009 -27.5701
lfingers 7.12502
lthumb 3.82848 2.37524
rfemur 1.39066 20.9953 25.1004
rtibia 5.04143
rfoot -16.1515 -26.8641
rtoes 2.33494
lfemur 8.50976 -40.0428 -15.3449
ltibia -4.31355
lfoot -13.0924 43.3532
ltoes -1.09995
355
root 0.927513 17.4208 8.98458 3.90791 4.1945 -7.30113
lowerback -5.07668 3.40835 7.01822
upperback -10.9109 4.7728 2.1626
thorax -8.36268 1.92887 -1.69545
lowerneck -7.46082 -6.41229 -3.95617
upperneck 38.69 -9.64995 2.10654
head 15.0332 -4.41684 0.176278
rclavicle -2.19129e-015 -3.28274e-014
rhumerus 12.6447 37.3912 -92.0697
rradius 104.416
rwrist 30.773
rhand -26.0991 -30.4751
rfingers 7.12502
rthumb 0.449984 -60.4544
lclavicle -2.19129e-015 -3.28274e-014
lhumerus 12.0982 -33.1061 85.1359
lradius 123.829
lwrist -4.75887
lhand -22.618 -27.7075
lfingers 7.12502
lthumb 3.81198 2.23819
rfemur 1.39285 20.9826 24.9657
rtibia 4.99345
rfoot -16.145 -26.9369
rtoes 2.02114
lfemur 8.402 -39.9464 -15.3973
ltibia -4.31084
lfoot -12.9819 43.246
ltoes -1.32714
356
root 0.93062 17.4203 8.98403 3.95286 4.31893 -7.16036
lowerback -5.13904 3.41109 7.05288
upperback -10.9106 4.77353 2.20319
thorax -8.32822 1.93007 -1.66764
lowerneck -7.67763 -6.43998 -3.8937
upperneck 38.9048 -9.66758 1.97832
head 15.1775 -4.42153 0.0976064
rclavicle -4.63044e-014 -5.94366e-014
rhumerus 12.5776 37.5239 -92.1247
rradius 104.562
rwrist 30.4266
rhand -26.0166 -30.7294
rfingers 7.12502
rthumb 0.52974 -60.7085
lclavicle -4.63044e-014 -5.94366e-014
lhumerus 12.0057 -33.135 85.2094
lradius 123.936
lwrist -4.73725
lhand -22.7415 -27.6707
lfingers 7.12502
lthumb 3.69277 2.27705
rfemur 1.44601 21.1058 24.8299
rtibia 4.89711
rfoot -16.2175 -27.1674
rtoes 2.0454
lfemur 8.22949 -39.7663 -15.4358
ltibia -4.28609
lfoot -12.8066 42.9669
ltoes -1.67468
